<svg id="Layer_1" data-name="Layer 1" xmlns="http://www.w3.org/2000/svg" viewBox="0 0 934.12 123.05"><defs><style>.cls-1{fill:#260c38;}.cls-2{fill:#280e3a;}</style></defs><title>text</title><path class="cls-1" d="M357.7,150.51c-30.14,20.43-22.43-153,49.45-37.33,1.75-100.56,55.32-83.92,31-11.43-12.86,103-43.21,45.83-71,5.8C363.71,121.14,366.13,137.49,357.7,150.51Z" transform="translate(-67.17 -40.92)"/><path class="cls-2" d="M776.89,139.8c-23.35,22.52-65.8,22.52-77.78-11-16.17,70-47.56,4.51-66.88-21.1-8.74,82.1-36.48,36.59-23-8.5-17.69,47.37-64.28,64.46-74.79,9.47C504,181,449.5,156.16,444.53,118.85,441.39,73.53,514,43.72,533.09,90c.68-9.81,9-56,25.51-32.45,3.53,17.59-5.33,49.47,7.5,54.44,18.29,1.11,23.43-46.23,31.08-55.11,18.5-24.45,28.16,7.09,19,23.47,18.52-29.56,43.11,21.23,55.84,30.65,4.49-8.6.26-79.86,29.82-65.68,19.27,10.1-.42,52.28,7,44.09,58.6-54.7,90.39-16,17.34,20.11-4.24,35.54,66.54.64,65-13.69-2.9-55.92,62.15-48.13,68.9-36.7,3.24,27.42-48.8,9.61-40.39,31.87,41.49-9.47,38.56,19.7.47,24.77-6.82,28,12.81,11.9,32.45,11.54,9.3-.91,14.64.48,18.35,5.66,5.62-11.25-1-55.46,7.4-69,48.34-29.7,12.12,162.31-9,76.77C784.31,218.25,798.9,71.24,776.89,139.8ZM476,119.21c53.55,21.25,23.05-68.11-8.89-2.34Z" transform="translate(-67.17 -40.92)"/><path class="cls-2" d="M994.07,46.81c24.84,21.72-22.68,24-19,35.91-5,101.4-54.61,79.32-28.05-1.36C843.73,85.13,961.21,37.21,994.07,46.81Z" transform="translate(-67.17 -40.92)"/><path class="cls-2" d="M180,159C93.76-4.9,289.32,26,232.59,106.47c2.41,13.72,36,19.32,15.22,35.51-6.51,3.26-19.55,2.2-29.86-10.69C186.62,102.62,215.65,175.27,180,159Zm13.57-59.77c18.68-10.42,15.76-40.11,3.06-34.49C189.13,73,193.61,89.31,193.57,99.23Z" transform="translate(-67.17 -40.92)"/><path class="cls-2" d="M100.94,43.32c49.83-3.49,64.12,28.64,36.81,65.49l.06-.06c-18.36,20.94-30.78,16-30,27.17C99.39,231.7,25.17,35.07,100.94,43.32Zm1.32,56.26c7.64-6.08,15.88-15.42,11.76-29.7C101.65,50.18,98.64,85.42,102.26,99.58Z" transform="translate(-67.17 -40.92)"/><path class="cls-2" d="M345,101.56c-1.47,5.08-1.22,11.41-4.11,16.51l.1-.16c-42.66,66.19-86.51,32.16-88.25-6.94C268.44,59.55,334.44,48,345,101.56ZM309,95c-16.29-6.94-27.59,7.92-32.7,21C304.12,136.19,324.23,110.59,309,95Z" transform="translate(-67.17 -40.92)"/></svg>